P2 5 5 255
-16 44 103 -127 -70 
-113 102 95 -79 -56 
-99 -23 31 122 27 
-80 -74 52 5 113 
-91 15 61 -35 -16 
