P2 5 5 15
1 5 1 15 0 
1 5 1 15 0 
1 5 1 15 15 
1 5 1 0 0 
1 5 1 0 0 
